<svg xmlns="http://www.w3.org/2000/svg" preserveAspectRatio="xMidYMid" viewBox="0 0 85 35"><path fill="#fff" d="M77 20.8c0 1.7 1 2.6 3.2 2.6 1.3 0 2.5-.3 3.5-1V25c-1 .8-2.6 1-4.4 1-2 0-3.4-.4-4.5-1.5-1-1-1.6-2.6-1.6-4.5 0-2 .6-3.7 1.7-4.8 1-1.2 2-1.8 4-1.8s3 .5 4 1.6c1 1 1.2 2.4 1.2 4.2v1.6H77zm2.2-5c-.6 0-1 .4-1.6 1-.4.4-.7 1-.7 1.7h4c0-1.7-1-2.6-2-2.6zm-18 8.4l6-7.7h-5.5v-2.8H72v1.8L66 23h6v2.7H61v-1.5zM56 24h-.3c-.8 1.3-2 2-3.6 2-1 0-2-.3-2.2-1-.7-.6-1-1.5-1-2.6 0-2.3 1.3-3.7 4-4L56 18c0-1.6-1-2-2.4-2s-2.8.2-4 1v-3l2-.7L54 13c3.7 0 5.4 1.7 5.4 5v7.3H56V24zm0-4l-2.4.3c-1.2.2-1.8.7-1.8 1.6l.3 1h1.7c.7 0 1.3-.4 1.7-.8.6-.5.8-1 .8-2V20zm-15.3 2v-5.6h-2v-2.7h2V11l3.7-1v3.7H47v2.7h-2.6v5c0 1.2.5 1.8 1.5 1.8 0 0 .3 0 1-.4v2.8c-.8.3-1.6.4-2.7.4-2.7 0-4-1.3-4-4zM28 26c-1 0-7.3-2.2-13 7.5 0 0-.2.7-.7.7s-.8-.7-.8-.7C8 23.8 1.5 26 .5 26s-.3-1-.3-1L14 .8l.4-.7.5 1 13 24s.6 1-.4 1z"/></svg>