<?xml version="1.0" encoding="utf-8"?>
<!-- Generator: Adobe Illustrator 16.0.4, SVG Export Plug-In . SVG Version: 6.00 Build 0)  -->
<!DOCTYPE svg PUBLIC "-//W3C//DTD SVG 1.1//EN" "http://www.w3.org/Graphics/SVG/1.1/DTD/svg11.dtd">
<svg version="1.1" id="Ebene_1" xmlns="http://www.w3.org/2000/svg" xmlns:xlink="http://www.w3.org/1999/xlink" x="0px" y="0px"
	 width="102px" height="20px" viewBox="0 0 102 20" enable-background="new 0 0 102 20" xml:space="preserve">
<g>
	<defs>
		<rect id="SVGID_1_" x="1.534" y="1.167" width="98.962" height="17.188"/>
	</defs>
	<clipPath id="SVGID_2_">
		<use xlink:href="#SVGID_1_"  overflow="visible"/>
	</clipPath>
	<path clip-path="url(#SVGID_2_)" fill="#003A5E" d="M10.865,13.365c-1.201,0.637-2.383,0.873-3.492,0.873
		c-3.692,0-5.838-2.528-5.838-6.039c0-3.474,2.437-6.238,6.073-6.238c1.292,0,2.384,0.291,3.021,0.637v1.509
		C9.773,3.653,8.846,3.343,7.646,3.343c-2.765,0-4.401,2.11-4.401,4.784c0,2.782,1.654,4.729,4.293,4.729
		c1.127,0,2.037-0.328,2.873-0.782L10.865,13.365z"/>
	<path clip-path="url(#SVGID_2_)" fill="#003A5E" d="M11.275,9.734c0-2.547,1.618-4.511,4.092-4.511
		c2.438,0,4.074,1.964,4.074,4.511c0,2.528-1.619,4.492-4.092,4.492C12.894,14.226,11.275,12.262,11.275,9.734 M17.787,9.734
		c0-1.855-0.909-3.183-2.42-3.183c-1.527,0-2.437,1.328-2.437,3.183c0,1.837,0.909,3.165,2.419,3.165
		C16.878,12.899,17.787,11.571,17.787,9.734"/>
	<path clip-path="url(#SVGID_2_)" fill="#003A5E" d="M20.533,5.441h1.363l0.182,1.055c0.928-0.764,1.892-1.274,2.983-1.274
		c1.364,0,2.619,0.801,2.619,3.056v5.766H26.08V8.807c0-1.219-0.291-2.165-1.474-2.165c-0.873,0-1.71,0.51-2.474,1.165v6.238h-1.6
		V5.441z"/>
	<path clip-path="url(#SVGID_2_)" fill="#003A5E" d="M29.898,12.117V6.733h-1.473V5.442h1.473V3.477L31.5,2.968v2.474h2.582
		l-0.437,1.291H31.5v5.075c0,0.764,0.309,1.091,0.871,1.091c0.547,0,1.037-0.236,1.383-0.455l0.527,1.11
		c-0.562,0.4-1.418,0.673-2.273,0.673C30.68,14.227,29.898,13.463,29.898,12.117"/>
	<path clip-path="url(#SVGID_2_)" fill="#003A5E" d="M35.372,5.441h1.347L36.9,6.497c0.908-0.964,1.637-1.274,2.419-1.274
		c0.364,0,0.765,0.091,1.019,0.256l-0.563,1.418c-0.272-0.145-0.546-0.219-0.819-0.219c-0.617,0-1.182,0.328-1.982,1.11v6.257
		h-1.601V5.441z"/>
	<path clip-path="url(#SVGID_2_)" fill="#003A5E" d="M40.028,9.734c0-2.547,1.619-4.511,4.093-4.511
		c2.438,0,4.073,1.964,4.073,4.511c0,2.528-1.618,4.492-4.092,4.492C41.647,14.226,40.028,12.262,40.028,9.734 M46.539,9.734
		c0-1.855-0.908-3.183-2.418-3.183c-1.529,0-2.438,1.328-2.438,3.183c0,1.837,0.908,3.165,2.419,3.165
		C45.631,12.899,46.539,11.571,46.539,9.734"/>
	<path clip-path="url(#SVGID_2_)" fill="#003A5E" d="M49.376,1.167h1.601v10.731c0,0.655,0.201,0.855,0.656,0.855
		c0.127,0,0.381-0.055,0.526-0.109l0.328,1.255c-0.399,0.163-0.91,0.254-1.328,0.254c-1.201,0-1.783-0.654-1.783-1.8V1.167z"/>
	<polygon clip-path="url(#SVGID_2_)" fill="#6B6D72" points="66.69,9.734 63.672,5.442 65.436,5.442 67.619,8.606 69.855,5.442 
		71.564,5.442 68.492,9.697 71.547,14.044 69.82,14.044 67.563,10.825 65.291,14.044 63.562,14.044 	"/>
	<path clip-path="url(#SVGID_2_)" fill="#6B6D72" d="M72.511,5.751c0.928-0.328,1.946-0.528,2.964-0.528
		c2.857,0,4.475,1.673,4.475,4.474c0,2.747-1.818,4.529-4.384,4.529c-0.526,0-1.036-0.109-1.455-0.273v4.402h-1.6V5.751z
		 M75.494,12.862c1.836,0,2.799-1.255,2.799-3.183c0-2.128-1.199-3.11-2.873-3.11c-0.473,0-0.873,0.072-1.31,0.2v5.784
		C74.565,12.771,74.965,12.862,75.494,12.862"/>
	<path clip-path="url(#SVGID_2_)" fill="#6B6D72" d="M80.967,9.68c0-2.619,1.437-4.456,3.638-4.456c2.256,0,3.565,1.728,3.565,4.474
		v0.4h-5.565c0.036,1.619,1.019,2.819,2.728,2.819c0.818,0,1.528-0.254,2.129-0.582l0.509,1.11c-0.8,0.509-1.855,0.782-2.839,0.782
		C82.276,14.227,80.967,12.135,80.967,9.68 M86.515,8.897c-0.036-1.201-0.618-2.401-1.91-2.401c-1.235,0-1.981,1.091-2,2.401H86.515
		z"/>
	<path clip-path="url(#SVGID_2_)" fill="#6B6D72" d="M89.33,5.441h1.344l0.183,1.055c0.91-0.964,1.637-1.274,2.42-1.274
		c0.362,0,0.763,0.091,1.019,0.256L93.73,6.896c-0.273-0.145-0.545-0.219-0.818-0.219c-0.617,0-1.182,0.328-1.982,1.11v6.257h-1.6
		V5.441z"/>
	<path clip-path="url(#SVGID_2_)" fill="#6B6D72" d="M96.113,12.117V6.733H94.64V5.442h1.474V3.477l1.6-0.509v2.474h2.584
		l-0.438,1.291h-2.146v5.075c0,0.764,0.311,1.091,0.873,1.091c0.546,0,1.037-0.236,1.383-0.455l0.527,1.11
		c-0.563,0.4-1.418,0.673-2.273,0.673C96.895,14.227,96.113,13.463,96.113,12.117"/>
	<path clip-path="url(#SVGID_2_)" fill="#6B6D72" d="M62.621,12.073c-0.836,0.455-1.746,0.782-2.873,0.782
		c-2.093,0-3.562-1.227-4.082-3.123h4.93l0.455-1.28h-5.584c-0.004-0.108-0.012-0.215-0.012-0.325c0-0.5,0.057-0.979,0.168-1.429
		h5.572l0.454-1.259h-5.531c0.724-1.272,2.011-2.096,3.739-2.096c1.2,0,2.127,0.309,2.982,0.764v-1.51
		c-0.637-0.345-1.729-0.636-3.02-0.636c-2.595,0-4.572,1.41-5.497,3.478h-1.591v1.259h1.18c-0.105,0.481-0.166,0.982-0.166,1.501
		c0,0.086,0.008,0.168,0.01,0.253h-1.023v1.28H53.9c0.544,2.688,2.557,4.506,5.684,4.506c1.11,0,2.293-0.237,3.492-0.873
		L62.621,12.073z"/>
</g>
</svg>
